<svg width="1324" height="595" fill="none" xmlns="http://www.w3.org/2000/svg"><path d="M.055 141.162c0-19.198 3.726-37.448 11.177-54.752 7.579-17.43 17.809-32.46 30.692-45.09 12.883-12.63 28.418-22.67 46.605-30.123C106.717 3.745 126.104.02 146.691.02c20.588 0 39.912 3.725 57.973 11.177 18.188 7.326 33.66 17.304 46.416 29.934 12.883 12.504 22.987 27.47 30.313 44.9 7.451 17.304 11.177 35.681 11.177 55.131 0 19.198-3.789 37.512-11.367 54.942-7.452 17.429-17.619 32.459-30.502 45.089-12.883 12.631-28.418 22.672-46.605 30.123-18.188 7.452-37.575 11.178-58.162 11.178-27.408 0-52.29-6.252-74.645-18.756-22.355-12.63-39.848-29.681-52.478-51.152C6.307 190.988.055 167.18.055 141.162zm77.107 0c0 20.082 6.568 37.322 19.703 51.721 13.136 14.398 29.744 21.597 49.826 21.597 20.335 0 36.944-7.072 49.827-21.218 12.882-14.272 19.324-31.639 19.324-52.1 0-20.082-6.568-37.322-19.703-51.72-13.136-14.399-29.871-21.598-50.205-21.598-20.082 0-36.565 7.136-49.448 21.408-12.883 14.146-19.324 31.449-19.324 51.91zm239.469-69.719V5.324h238.332v66.12h-81.654V277h-75.213V71.443h-81.465zm251.594 165.203l39.027-50.015c21.471 21.471 46.984 32.207 76.539 32.207 13.514 0 23.808-2.463 30.881-7.389s10.609-11.43 10.609-19.513c0-15.915-14.461-23.872-43.385-23.872h-28.417v-55.888h27.47c13.009 0 22.671-2.211 28.987-6.631 6.315-4.547 9.472-10.61 9.472-18.188 0-7.073-3.094-12.756-9.283-17.05-6.189-4.42-14.462-6.631-24.818-6.631-11.746 0-24.25 2.526-37.512 7.578-13.135 5.052-23.934 11.43-32.397 19.135l-37.132-44.332C609.462 15.365 647.353.02 691.938.02c29.933 0 54.309 6.883 73.128 20.65 18.946 13.767 28.418 31.323 28.418 52.668 0 28.418-13.577 48.942-40.732 61.572 14.651 4.926 26.271 12.63 34.859 23.113 8.589 10.357 12.883 23.619 12.883 39.786 0 24.629-9.788 44.837-29.365 60.625-19.451 15.787-45.595 23.681-78.434 23.681-19.829 0-37.638-2.021-53.425-6.062-15.788-4.168-28.797-9.283-39.028-15.346-10.104-6.189-20.777-14.209-32.017-24.061zM836.111 277V5.324h75.213v85.444h41.112c16.419 0 31.449 1.957 45.089 5.873 13.765 3.915 25.705 9.662 35.805 17.24 10.11 7.452 17.94 17.114 23.49 28.986 5.69 11.746 8.53 25.134 8.53 40.164 0 29.05-9.85 51.974-29.56 68.772C1016.22 268.601 989.758 277 956.414 277H836.111zm75.213-63.277h39.217c12.504 0 22.229-2.779 29.176-8.336 6.946-5.558 10.42-13.641 10.42-24.25 0-9.599-3.537-17.241-10.61-22.924-6.946-5.684-16.482-8.525-28.607-8.525h-39.596v64.035zM1097.18 277V5.324h75.4V277h-75.4zm123.52 0V5.324h139.25c33.09 0 57.78 8.147 74.08 24.44 11.74 11.746 17.61 26.65 17.61 44.71 0 28.166-14.02 48.311-42.05 60.436 17.55 5.81 30.94 14.02 40.16 24.629 9.22 10.483 13.83 24.692 13.83 42.627 0 23.366-9.09 41.68-27.28 54.941-18.06 13.262-43.26 19.893-75.59 19.893H1220.7zm73.32-60.436h58.16c11.5 0 20.4-2.21 26.71-6.63 6.32-4.421 9.48-10.799 9.48-19.135 0-7.578-3.1-13.514-9.29-17.809-6.18-4.42-15.4-6.631-27.66-6.631h-57.4v50.205zm0-102.873h47.36c23.75 0 35.62-8.146 35.62-24.439 0-7.452-2.9-13.199-8.71-17.24-5.81-4.042-14.28-6.063-25.39-6.063h-48.88v47.742zM1113.47 595V323.324h75.21v85.444h41.11c16.42 0 31.45 1.957 45.09 5.873 13.77 3.915 25.71 9.662 35.81 17.24 10.11 7.452 17.94 17.114 23.49 28.986 5.69 11.746 8.53 25.134 8.53 40.164 0 29.05-9.85 51.974-29.56 68.772-19.57 16.798-46.03 25.197-79.38 25.197h-120.3zm75.21-63.277h39.22c12.5 0 22.23-2.779 29.18-8.336 6.94-5.558 10.42-13.641 10.42-24.25 0-9.599-3.54-17.241-10.61-22.924-6.95-5.684-16.49-8.525-28.61-8.525h-39.6v64.035zM1374.54 595V323.324h75.4V595h-75.4z" fill="#E5E5E5" fill-opacity=".4"/></svg>