<svg width="715" height="914" fill="none" xmlns="http://www.w3.org/2000/svg"><path d="M215.393 272V.324h128.449c39.532 0 69.024 9.726 88.474 29.176 16.041 16.04 24.061 37.512 24.061 64.414 0 20.082-4.926 37.133-14.777 51.152-9.852 14.02-23.556 24.756-41.112 32.207L465.281 272h-86.959l-54.752-82.223h-32.965V272h-75.212zm75.212-141.143h49.637c12.757 0 22.671-2.905 29.744-8.714 7.073-5.937 10.61-14.083 10.61-24.44 0-10.483-3.6-18.44-10.799-23.871-7.073-5.557-17.051-8.336-29.934-8.336h-49.258v65.361zM494.268 272V.324h218.439V64.36H568.723v41.112h130.343v59.488H568.723v43.006h145.879V272H494.268zM38.633 318.324h84.306l61.573 172.024 61.761-172.024h82.602L218.803 591.895h-69.908L38.633 318.324zM356.725 590V318.324h75.781V590h-75.781zm116.892 0v-54.752L609.834 381.98h-131.67v-63.656h235.68v54.752L577.627 526.344h136.217V590H473.617zM.553 908V636.324h75.781V908H.553zm116.135-135.838c0-19.198 3.725-37.448 11.177-54.752 7.578-17.43 17.809-32.459 30.692-45.09 12.882-12.63 28.418-22.671 46.605-30.123 18.188-7.452 37.575-11.177 58.162-11.177 20.587 0 39.912 3.725 57.973 11.177 18.187 7.326 33.659 17.304 46.416 29.934 12.883 12.504 22.987 27.471 30.312 44.9 7.452 17.304 11.178 35.681 11.178 55.131 0 19.198-3.789 37.512-11.367 54.942-7.452 17.429-17.619 32.459-30.502 45.089-12.883 12.631-28.418 22.672-46.605 30.123-18.188 7.452-37.575 11.178-58.163 11.178-27.407 0-52.289-6.252-74.644-18.756-22.356-12.63-39.848-29.681-52.479-51.152-12.504-21.598-18.755-45.406-18.755-71.424zm77.107 0c0 20.082 6.568 37.322 19.703 51.721 13.135 14.398 29.744 21.597 49.826 21.597 20.335 0 36.944-7.072 49.826-21.218 12.883-14.272 19.325-31.639 19.325-52.1 0-20.082-6.568-37.322-19.704-51.721-13.135-14.398-29.87-21.597-50.205-21.597-20.082 0-36.564 7.136-49.447 21.408-12.883 14.146-19.324 31.449-19.324 51.91zM448.42 908V636.324h70.287L630.295 779.93V636.324h74.644V908H639.01L522.875 759.09V908H448.42z" fill="#E5E5E5" fill-opacity=".5"/></svg>