<svg width="24" height="24" viewBox="0 0 24 24" fill="none" xmlns="http://www.w3.org/2000/svg">
<path fill-rule="evenodd" clip-rule="evenodd" d="M13.8 8.2998C13.8 7.33468 12.903 6.5498 11.8 6.5498C10.697 6.5498 9.80005 7.33468 9.80005 8.2998C9.80005 9.26493 10.697 10.0498 11.8 10.0498C12.903 10.0498 13.8 9.26493 13.8 8.2998ZM15.8001 8.2998C15.8001 10.2301 14.0061 11.7998 11.8 11.7998C9.59405 11.7998 7.80005 10.2301 7.80005 8.2998C7.80005 6.36955 9.59405 4.7998 11.8 4.7998C14.0061 4.7998 15.8001 6.36955 15.8001 8.2998ZM4.80005 19.6748C4.80005 16.2973 7.94105 13.5498 11.8 13.5498C15.659 13.5498 18.8001 16.2973 18.8001 19.6748C18.8001 20.1578 18.3531 20.5498 17.8001 20.5498C17.2471 20.5498 16.8001 20.1578 16.8001 19.6748C16.8001 17.2624 14.557 15.2998 11.8 15.2998C9.04305 15.2998 6.80005 17.2624 6.80005 19.6748C6.80005 20.1578 6.35305 20.5498 5.80005 20.5498C5.24705 20.5498 4.80005 20.1578 4.80005 19.6748Z" fill="#262D35"/>
</svg>
