<svg width="24" height="24" viewBox="0 0 24 24" fill="none" xmlns="http://www.w3.org/2000/svg">
<path fill-rule="evenodd" clip-rule="evenodd" d="M4 19V5C4 4.96562 4.00176 4.93164 4.00519 4.89813C4.05664 4.39551 4.48438 4 5 4H7C7.55 4 8 4.45 8 5C8 5.55 7.55 6 7 6L6 6L6 18H7C7.55 18 8 18.45 8 19C8 19.55 7.55 20 7 20H5C4.45 20 4 19.55 4 19ZM19.7832 11.8353C19.7832 12.0363 19.7222 12.2373 19.6012 12.4103L16.7872 16.4103C16.4692 16.8623 15.8452 16.9713 15.3942 16.6533C14.9422 16.3353 14.8332 15.7123 15.1512 15.2603L16.8593 12.8322C16.8343 12.8341 16.809 12.835 16.7834 12.835H8.78345C8.23145 12.835 7.78345 12.388 7.78345 11.835C7.78345 11.282 8.23145 10.835 8.78345 10.835H16.7828L14.9832 8.43534C14.6502 7.99334 14.7412 7.36634 15.1832 7.03534C15.6252 6.70334 16.2522 6.79334 16.5832 7.23534L19.5832 11.2353C19.7162 11.4123 19.7832 11.6243 19.7832 11.8353Z" fill="#262D35"/>
</svg>
