<svg width="71" height="71" fill="none" xmlns="http://www.w3.org/2000/svg"><path d="M66.734 0H4.26A4.26 4.26 0 0 0 0 4.26v45.436a4.26 4.26 0 0 0 4.26 4.26h41.318a1.422 1.422 0 0 1 1.06.475c.067.074.14.142.22.201l21.867 16.086a1.42 1.42 0 0 0 2.269-1.144V4.26A4.26 4.26 0 0 0 66.734 0zm1.42 66.767L48.652 52.426a4.26 4.26 0 0 0-3.074-1.31H4.26a1.42 1.42 0 0 1-1.42-1.42V4.26a1.42 1.42 0 0 1 1.42-1.42h62.474a1.42 1.42 0 0 1 1.42 1.42v62.507z" fill="#fff"/><path d="M31.451 22.892l-7.1-1.084-3.188-6.793a1.42 1.42 0 0 0-2.57 0l-3.19 6.793-7.099 1.084a1.42 1.42 0 0 0-.802 2.396l5.18 5.307-1.226 7.513a1.42 1.42 0 0 0 2.09 1.47l6.332-3.5 6.332 3.5a1.42 1.42 0 0 0 2.09-1.47l-1.226-7.513 5.18-5.307a1.42 1.42 0 0 0-.803-2.396zm-6.91 6.234a1.42 1.42 0 0 0-.385 1.22l.87 5.332-4.461-2.464a1.42 1.42 0 0 0-1.374 0l-4.462 2.465.87-5.334a1.418 1.418 0 0 0-.384-1.22l-3.75-3.843 5.112-.78a1.419 1.419 0 0 0 1.07-.802l2.23-4.74 2.226 4.74a1.42 1.42 0 0 0 1.07.801l5.112.781-3.744 3.844zm38.147-6.234l-7.099-1.084-3.189-6.793a1.42 1.42 0 0 0-2.57 0l-3.189 6.793-7.1 1.084a1.42 1.42 0 0 0-.802 2.396l5.18 5.307-1.225 7.513a1.42 1.42 0 0 0 2.088 1.47l6.333-3.5 6.333 3.5a1.42 1.42 0 0 0 2.088-1.47l-1.225-7.513 5.18-5.307a1.42 1.42 0 0 0-.803-2.396zm-6.91 6.234a1.42 1.42 0 0 0-.385 1.22l.87 5.332-4.46-2.464a1.42 1.42 0 0 0-1.375 0l-4.461 2.465.87-5.334a1.42 1.42 0 0 0-.385-1.22l-3.75-3.843 5.112-.78a1.419 1.419 0 0 0 1.07-.802l2.231-4.74 2.225 4.74a1.42 1.42 0 0 0 1.07.801l5.112.781-3.744 3.844z" fill="#fff"/></svg>