<svg width="72" height="72" fill="none" xmlns="http://www.w3.org/2000/svg"><g clip-path="url(#clip0)" fill="#fff"><path d="M65.19 56.5H42.81a7.697 7.697 0 0 0 1.04-8.235 7.77 7.77 0 0 0-2.879-3.24 7.854 7.854 0 0 0-4.181-1.207H15.939a4.23 4.23 0 0 0-1.55-2.037A4.282 4.282 0 0 0 11.94 41H6.26c-1.13 0-2.213.445-3.012 1.238A4.211 4.211 0 0 0 2 45.228v22.545c0 1.12.449 2.196 1.248 2.989A4.277 4.277 0 0 0 6.26 72h5.68c1.13 0 2.213-.445 3.012-1.238a4.211 4.211 0 0 0 1.248-2.99v-.538l8.706 4.32A4.307 4.307 0 0 0 26.81 72h38.38a7.84 7.84 0 0 0 5.523-2.27A7.72 7.72 0 0 0 73 64.25a7.72 7.72 0 0 0-2.287-5.48 7.84 7.84 0 0 0-5.523-2.27zM13.36 67.773c0 .373-.15.732-.416.996a1.425 1.425 0 0 1-1.004.413H6.26c-.377 0-.738-.149-1.004-.413a1.404 1.404 0 0 1-.416-.996V45.227c0-.373.15-.732.416-.996a1.425 1.425 0 0 1 1.004-.413h5.68c.377 0 .738.149 1.004.413s.416.623.416.996v22.546zm51.83 1.409H26.81a1.428 1.428 0 0 1-.634-.141L16.2 64.084V46.636h20.59a4.99 4.99 0 0 1 3.516 1.44 4.913 4.913 0 0 1 1.46 3.486 4.913 4.913 0 0 1-1.45 3.489 4.99 4.99 0 0 1-3.513 1.449H33.24c-.377 0-.738.148-1.004.413a1.404 1.404 0 0 0 0 1.993c.266.264.627.412 1.004.412h31.95a4.99 4.99 0 0 1 3.514 1.445 4.912 4.912 0 0 1 1.456 3.487 4.912 4.912 0 0 1-1.456 3.487 4.99 4.99 0 0 1-3.514 1.445zM37.5 38A18.5 18.5 0 1 0 19 19.5 18.521 18.521 0 0 0 37.5 38zm0-34.154A15.654 15.654 0 1 1 21.846 19.5 15.672 15.672 0 0 1 37.5 3.846z"/><path d="M27 19.6c.003-2.598 1.11-5.09 3.079-6.926 1.968-1.838 4.637-2.871 7.421-2.874.398 0 .78-.148 1.06-.41.282-.263.44-.619.44-.99s-.158-.727-.44-.99A1.556 1.556 0 0 0 37.5 7c-3.58.004-7.01 1.332-9.542 3.694-2.53 2.363-3.954 5.565-3.958 8.906 0 .371.158.727.44.99.28.262.662.41 1.06.41s.78-.148 1.06-.41c.282-.263.44-.619.44-.99z"/></g><defs><clipPath id="clip0"><path fill="#fff" d="M0 0h72v72H0z"/></clipPath></defs></svg>