<svg width="24" height="24" viewBox="0 0 24 24" fill="none" xmlns="http://www.w3.org/2000/svg">
<path fill-rule="evenodd" clip-rule="evenodd" d="M7.91894 6.75013C7.09094 6.75013 6.31469 7.07022 5.73394 7.65192C4.52836 8.85943 4.52836 10.825 5.7349 12.0344L12.4998 18.8108L19.2656 12.0344C20.4721 10.825 20.4721 8.85943 19.2656 7.65192C18.1041 6.48755 16.0571 6.48947 14.8956 7.65192L13.1783 9.37213C12.8179 9.73343 12.1816 9.73343 11.8213 9.37213L10.1039 7.65097C9.52319 7.07022 8.7479 6.75013 7.91894 6.75013ZM12.4998 21.1252C12.2458 21.1252 12.0015 21.0245 11.8223 20.8434L4.37793 13.3876C2.42676 11.4326 2.42676 8.25187 4.37793 6.29687C5.32093 5.35387 6.57826 4.8335 7.91897 4.8335C9.25968 4.8335 10.518 5.35387 11.46 6.29687L12.4998 7.33858L13.5396 6.29783C14.4826 5.35387 15.7399 4.8335 17.0816 4.8335C18.4213 4.8335 19.6796 5.35387 20.6217 6.29687C22.5738 8.25187 22.5738 11.4326 20.6226 13.3876L13.1783 20.8444C12.9981 21.0245 12.7547 21.1252 12.4998 21.1252Z" fill="#262D35"/>
</svg>
