<svg width="50" height="50" fill="none" xmlns="http://www.w3.org/2000/svg"><path d="M39.063 38.281h-.782v-12.5a.781.781 0 1 0-1.562 0v6.25h-2.344a2.344 2.344 0 0 0-2.344 2.344v3.906H30.47V30.47h3.906a.781.781 0 0 0 0-1.563H25a.781.781 0 1 0 0 1.563h3.906v7.812h-1.562v-3.906A2.344 2.344 0 0 0 25 32.031h-2.344v-6.25a.781.781 0 1 0-1.562 0v12.5h-4.688V27.344h2.344a.781.781 0 0 0 0-1.563h-2.344v-4.765a3.906 3.906 0 0 0 3.907-1.485 3.907 3.907 0 0 0 6.25 0 3.85 3.85 0 0 0 3.906 1.485v5.547a.781.781 0 1 0 1.562 0v-6.25a4.134 4.134 0 0 0 1.563-3.227c0-3.07.062-3.016-.078-3.32l-4.258-8.563a2.344 2.344 0 0 0-2.102-1.297H7.22a2.344 2.344 0 0 0-2.102 1.297l-4.25 8.508c-.14.305-.047.234-.078 3.32a4.133 4.133 0 0 0 1.555 3.282V38.28h-.781a.781.781 0 1 0 0 1.563h37.5a.781.781 0 0 0 0-1.563zm-5.47-3.906a.781.781 0 0 1 .782-.781h2.344v4.687h-3.125v-3.906zm-10.937-.781H25a.781.781 0 0 1 .781.781v3.906h-3.125v-4.687zm4.688-16.407a.781.781 0 0 0-1.563 0c0 3.125-4.687 3.125-4.687 0a.781.781 0 0 0-1.563 0c0 3.125-4.687 3.125-4.687 0a.781.781 0 0 0-1.563 0c0 3.125-4.687 3.125-4.687 0a.781.781 0 1 0-1.563 0c0 3.07-4.687 3.188-4.687-.132v-2.211H32.03v2.21c0 3.305-4.687 3.259-4.687.134zM6.516 5.899a.781.781 0 0 1 .703-.43h19.937a.782.782 0 0 1 .703.43l3.688 7.383H2.828l3.688-7.383zM3.906 21a3.851 3.851 0 0 0 3.906-1.469 3.907 3.907 0 0 0 6.25 0c.22.298.484.562.782.782V38.28H3.906V21zm9.375 6.344v1.562a.781.781 0 1 1-1.562 0v-1.562a.781.781 0 1 1 1.562 0z" fill="#fff"/></svg>