<svg width="14" height="14" viewBox="0 0 14 14" fill="none" xmlns="http://www.w3.org/2000/svg">
<g id="Icon/Outline/arrow-right">
<path id="Mask" fill-rule="evenodd" clip-rule="evenodd" d="M2.91659 7.58317H9.83783L7.71859 10.1265C7.51209 10.3738 7.54592 10.7419 7.79325 10.9478C8.04117 11.1543 8.40867 11.1205 8.61517 10.8732L11.5318 7.37317C11.5546 7.34575 11.5657 7.31367 11.5826 7.28334C11.5966 7.25884 11.6135 7.23784 11.624 7.211C11.6503 7.14392 11.666 7.07334 11.666 7.00217C11.666 7.00159 11.6666 7.00042 11.6666 6.99984C11.6666 6.99925 11.666 6.99809 11.666 6.9975C11.666 6.92634 11.6503 6.85575 11.624 6.78867C11.6135 6.76184 11.5966 6.74084 11.5826 6.71634C11.5657 6.686 11.5546 6.65392 11.5318 6.6265L8.61517 3.1265C8.49908 2.98825 8.33342 2.9165 8.16658 2.9165C8.03475 2.9165 7.90233 2.96084 7.79325 3.05184C7.54592 3.25775 7.51209 3.62584 7.71859 3.87317L9.83783 6.4165H2.91659C2.59459 6.4165 2.33325 6.67784 2.33325 6.99984C2.33325 7.32184 2.59459 7.58317 2.91659 7.58317Z" fill="#231F20"/>
<mask id="mask0" mask-type="alpha" maskUnits="userSpaceOnUse" x="2" y="2" width="10" height="10">
<path id="Mask_2" fill-rule="evenodd" clip-rule="evenodd" d="M2.91659 7.58317H9.83783L7.71859 10.1265C7.51209 10.3738 7.54592 10.7419 7.79325 10.9478C8.04117 11.1543 8.40867 11.1205 8.61517 10.8732L11.5318 7.37317C11.5546 7.34575 11.5657 7.31367 11.5826 7.28334C11.5966 7.25884 11.6135 7.23784 11.624 7.211C11.6503 7.14392 11.666 7.07334 11.666 7.00217C11.666 7.00159 11.6666 7.00042 11.6666 6.99984C11.6666 6.99925 11.666 6.99809 11.666 6.9975C11.666 6.92634 11.6503 6.85575 11.624 6.78867C11.6135 6.76184 11.5966 6.74084 11.5826 6.71634C11.5657 6.686 11.5546 6.65392 11.5318 6.6265L8.61517 3.1265C8.49908 2.98825 8.33342 2.9165 8.16658 2.9165C8.03475 2.9165 7.90233 2.96084 7.79325 3.05184C7.54592 3.25775 7.51209 3.62584 7.71859 3.87317L9.83783 6.4165H2.91659C2.59459 6.4165 2.33325 6.67784 2.33325 6.99984C2.33325 7.32184 2.59459 7.58317 2.91659 7.58317Z" fill="white"/>
</mask>
<g mask="url(#mask0)">
<g id="&#240;&#159;&#142;&#168; Color">
<rect id="Base" width="14" height="14" fill="#262D35"/>
</g>
</g>
</g>
</svg>
