<svg width="50" height="50" fill="none" xmlns="http://www.w3.org/2000/svg"><path d="M30.898 5.805a17.188 17.188 0 1 0-24.3 24.313 17.188 17.188 0 0 0 24.3-24.313zm-.28 14.578l-5.134-1.39-1.406-5.266 3.797-3.797 4.453.343a15.626 15.626 0 0 1 2.047 7.555l-3.758 2.555zM22.241 31.03l2.664 1.274c-1.38.588-2.838.977-4.328 1.156l1.664-2.43zm-3.633 2.563a15.626 15.626 0 0 1-7.554-2.024l-.344-4.453 3.797-3.797 5.265 1.407 1.391 5.132-2.555 3.735zm-15.484-15.5l3.734-2.555 5.125 1.39 1.415 5.266-3.805 3.797-4.438-.344a15.625 15.625 0 0 1-2.031-7.554zm1.273-6.297l1.274 2.664-2.43 1.664c.179-1.49.568-2.947 1.156-4.328zm15.743 11.39l-5.227-1.398-1.398-5.227 3.828-3.828 5.226 1.399 1.399 5.226-3.828 3.828zM15.242 4.892l-2.664-1.274a15.85 15.85 0 0 1 4.328-1.156l-1.664 2.43zm3.633-2.547c2.65.025 5.25.724 7.555 2.031l.343 4.445-3.796 3.805-5.266-1.414-1.39-5.125 2.554-3.742zm15.367 17.453a15.854 15.854 0 0 1-1.156 4.328l-1.273-2.664 2.43-1.664zM31.25 8.594l-2.938-.227-.187-2.898c.6.448 1.17.936 1.703 1.46.514.52.99 1.076 1.422 1.665zM7.695 6.914a15.29 15.29 0 0 1 3.125-2.406l3.97 1.898 1.421 5.242-3.781 3.782-5.242-1.422-1.899-3.961a15.288 15.288 0 0 1 2.406-3.133zM6.25 27.344l2.938.218.187 2.907a14.849 14.849 0 0 1-1.703-1.453 16.525 16.525 0 0 1-1.422-1.672zm23.555 1.703a15.29 15.29 0 0 1-3.125 2.406l-3.961-1.898-1.422-5.242 3.781-3.782 5.242 1.422 1.899 3.961a15.292 15.292 0 0 1-2.43 3.094l.016.039z" fill="#fff"/></svg>