<svg width="50" height="50" fill="none" xmlns="http://www.w3.org/2000/svg"><path d="M39.063 38.281h-.782V18.75a2.344 2.344 0 0 0-2.343-2.344H31.25v-3.125a1.563 1.563 0 0 0 1.563-1.562v-1.563a1.563 1.563 0 0 0-1.563-1.562H21.094V7.03h5.468a.781.781 0 0 0 .782-.781V1.562a.781.781 0 0 0-.782-.78h-6.25a.781.781 0 0 0-.78.78v7.032H9.374a1.562 1.562 0 0 0-1.563 1.562v1.563a1.562 1.562 0 0 0 1.563 1.562v3.125H4.687a2.344 2.344 0 0 0-2.343 2.344v19.531h-.781a.781.781 0 0 0 0 1.563h37.5a.781.781 0 0 0 0-1.563zM21.093 2.344h4.688v3.125h-4.687V2.344zM9.376 38.28h-5.47V18.75a.781.781 0 0 1 .781-.781h4.688V38.28zm0-28.125H31.25v1.563H9.375v-1.563zM22.657 38.28H17.97v-4.687h4.687v4.687zm7.032 0h-5.47v-5.468a.781.781 0 0 0-.78-.782h-6.25a.781.781 0 0 0-.782.782v5.468h-5.468v-25h18.75v25zm7.03 0H31.25V17.97h4.688a.781.781 0 0 1 .78.781v19.531zM6.25 23.438v-2.344a.781.781 0 1 1 1.563 0v2.343a.781.781 0 1 1-1.563 0zm0 5.468v-2.343a.781.781 0 1 1 1.563 0v2.343a.781.781 0 1 1-1.563 0zm28.125-7.812v2.343a.781.781 0 1 1-1.563 0v-2.343a.781.781 0 1 1 1.563 0zm0 5.468v2.344a.781.781 0 1 1-1.563 0v-2.343a.781.781 0 1 1 1.563 0zm-21.094 3.125v-3.125a.781.781 0 0 1 1.563 0v3.125a.781.781 0 0 1-1.563 0zm5.86-3.125v3.125a.781.781 0 1 1-1.563 0v-3.125a.781.781 0 1 1 1.563 0zm3.906 0v3.125a.781.781 0 1 1-1.563 0v-3.125a.781.781 0 1 1 1.563 0zm2.734 3.125v-3.125a.781.781 0 0 1 1.563 0v3.125a.781.781 0 0 1-1.563 0zm-5.468-7.03a3.906 3.906 0 1 0 0-7.812 3.906 3.906 0 0 0 0 7.811zm0-6.25a2.344 2.344 0 1 1 0 4.687 2.344 2.344 0 0 1 0-4.688z" fill="#262D35"/></svg>