<svg width="19" height="19" viewBox="0 0 19 19" fill="none" xmlns="http://www.w3.org/2000/svg">
<g id="Icon/Outline/person">
<path id="Mask" fill-rule="evenodd" clip-rule="evenodd" d="M11.0832 5.5417C11.0832 4.66849 10.3731 3.95836 9.4999 3.95836C8.62669 3.95836 7.91657 4.66849 7.91657 5.5417C7.91657 6.41491 8.62669 7.12503 9.4999 7.12503C10.3731 7.12503 11.0832 6.41491 11.0832 5.5417ZM12.6666 5.54167C12.6666 7.28808 11.2463 8.70833 9.49992 8.70833C7.7535 8.70833 6.33325 7.28808 6.33325 5.54167C6.33325 3.79525 7.7535 2.375 9.49992 2.375C11.2463 2.375 12.6666 3.79525 12.6666 5.54167ZM3.95825 15.8333C3.95825 12.7775 6.44488 10.2916 9.49992 10.2916C12.555 10.2916 15.0416 12.7775 15.0416 15.8333C15.0416 16.2703 14.6877 16.625 14.2499 16.625C13.8121 16.625 13.4583 16.2703 13.4583 15.8333C13.4583 13.6507 11.6825 11.875 9.49992 11.875C7.31729 11.875 5.54159 13.6507 5.54159 15.8333C5.54159 16.2703 5.18771 16.625 4.74992 16.625C4.31213 16.625 3.95825 16.2703 3.95825 15.8333Z" fill="#231F20"/>
<mask id="mask0" mask-type="alpha" maskUnits="userSpaceOnUse" x="3" y="2" width="13" height="15">
<path id="Mask_2" fill-rule="evenodd" clip-rule="evenodd" d="M11.0832 5.5417C11.0832 4.66849 10.3731 3.95836 9.4999 3.95836C8.62669 3.95836 7.91657 4.66849 7.91657 5.5417C7.91657 6.41491 8.62669 7.12503 9.4999 7.12503C10.3731 7.12503 11.0832 6.41491 11.0832 5.5417ZM12.6666 5.54167C12.6666 7.28808 11.2463 8.70833 9.49992 8.70833C7.7535 8.70833 6.33325 7.28808 6.33325 5.54167C6.33325 3.79525 7.7535 2.375 9.49992 2.375C11.2463 2.375 12.6666 3.79525 12.6666 5.54167ZM3.95825 15.8333C3.95825 12.7775 6.44488 10.2916 9.49992 10.2916C12.555 10.2916 15.0416 12.7775 15.0416 15.8333C15.0416 16.2703 14.6877 16.625 14.2499 16.625C13.8121 16.625 13.4583 16.2703 13.4583 15.8333C13.4583 13.6507 11.6825 11.875 9.49992 11.875C7.31729 11.875 5.54159 13.6507 5.54159 15.8333C5.54159 16.2703 5.18771 16.625 4.74992 16.625C4.31213 16.625 3.95825 16.2703 3.95825 15.8333Z" fill="white"/>
</mask>
<g mask="url(#mask0)">
<g id="&#240;&#159;&#142;&#168; Color">
<rect id="Base" width="19" height="19" fill="#262D35"/>
</g>
</g>
</g>
</svg>
