<svg width="50" height="50" fill="none" xmlns="http://www.w3.org/2000/svg"><path d="M34.375 14.063h-1.46a.78.78 0 0 1-.669-.38L28.47 7.388a2.354 2.354 0 0 0-2.01-1.138H9.652a2.334 2.334 0 0 0-2.177 1.473l-2.535 6.34H3.125a2.344 2.344 0 0 0-2.344 2.343v6.25A2.343 2.343 0 0 0 3.125 25h2.422a3.906 3.906 0 0 0 7.656 0h14.219a3.907 3.907 0 0 0 7.656 0H37.5a2.344 2.344 0 0 0 2.344-2.344v-3.125a5.475 5.475 0 0 0-5.469-5.468zm.781 1.64a3.918 3.918 0 0 1 3.047 3.047H37.5a2.344 2.344 0 0 1-2.344-2.344v-.703zM18.75 7.813h7.71a.78.78 0 0 1 .669.38l3.523 5.87H18.75v-6.25zm-9.823.49a.777.777 0 0 1 .725-.49h7.536v6.25H6.623l2.304-5.76zm.448 18.26a2.343 2.343 0 1 1 0-4.687 2.343 2.343 0 0 1 0 4.686zm21.875 0a2.343 2.343 0 1 1 0-4.686 2.343 2.343 0 0 1 0 4.686zm7.031-3.907a.781.781 0 0 1-.781.782h-2.422a3.907 3.907 0 0 0-7.656 0H13.203a3.907 3.907 0 0 0-7.656 0H3.125a.781.781 0 0 1-.781-.782v-6.25a.781.781 0 0 1 .781-.781h30.469v.781a3.91 3.91 0 0 0 3.906 3.907h.781v2.343z" fill="#fff"/><path d="M21.875 18.75h-1.563a.781.781 0 1 0 0 1.563h1.563a.781.781 0 1 0 0-1.563zm-6.25 0h-1.563a.781.781 0 1 0 0 1.563h1.563a.781.781 0 1 0 0-1.563zM9.375 25a.781.781 0 1 0 0-1.562.781.781 0 0 0 0 1.562zm21.875 0a.781.781 0 1 0 0-1.562.781.781 0 0 0 0 1.562z" fill="#fff"/></svg>