<svg width="50" height="50" fill="none" xmlns="http://www.w3.org/2000/svg"><path d="M35.484 2.344A2.344 2.344 0 0 0 33.29.78H7.336A2.344 2.344 0 0 0 5.14 2.344C.6 14.445.78 13.797.78 14.063c.11.835-.5 3.273 1.563 5.382v18.836h-.782a.781.781 0 0 0 0 1.563h37.5a.781.781 0 0 0 0-1.563h-.78V19.375c2.038-2.172 1.46-4.61 1.562-5.313 0-.265.18.391-4.36-11.718zm-2.195 0a.781.781 0 0 1 .734.508l3.907 10.43h-7.594L28.28 2.343h5.008zm-12.195 0h5.601L28.75 13.28h-7.656V2.344zm0 12.5h7.812v.781a3.906 3.906 0 1 1-7.812 0v-.781zm-1.563-12.5V13.28h-7.656L13.93 2.344h5.601zm0 12.5v.781c0 5.125-7.812 5.305-7.812-.195v-.586h7.812zM6.601 2.852a.781.781 0 0 1 .735-.508h5.008L10.289 13.28H2.687L6.602 2.85zM2.345 15.625v-.781h7.812v.586a4.04 4.04 0 0 1-3.789 4.101 3.905 3.905 0 0 1-4.023-3.906zm14.062 22.656H8.594v-9.375h7.812v9.375zM8.672 27.344a3.906 3.906 0 0 1 1.156-2.055l1.274 2.055h-2.43zm2.484-2.875a3.75 3.75 0 0 1 2.688 0L12.5 26.64l-1.344-2.172zm2.742 2.875l1.274-2.055c.588.55.991 1.267 1.156 2.055h-2.43zm22.82 10.937h-18.75V28.125a5.469 5.469 0 0 0-10.937 0v10.156H3.906V20.563a5.383 5.383 0 0 0 7.032-2.188 5.468 5.468 0 0 0 9.374.055 5.469 5.469 0 0 0 9.375 0 5.39 5.39 0 0 0 7.032 2.101v17.75zm1.563-22.851a4.04 4.04 0 0 1-3.789 4.101 3.905 3.905 0 0 1-4.023-3.906v-.781h7.812v.586zm-7.031 7.226h-9.375A2.344 2.344 0 0 0 19.531 25v7.813a2.344 2.344 0 0 0 2.344 2.343h9.375a2.344 2.344 0 0 0 2.344-2.343V25a2.344 2.344 0 0 0-2.344-2.344zm.781 10.157a.781.781 0 0 1-.781.78h-9.375a.782.782 0 0 1-.781-.78V25a.781.781 0 0 1 .781-.781h9.375a.781.781 0 0 1 .781.781v7.813zm-18.75.78v-1.562a.781.781 0 1 1 1.563 0v1.563a.781.781 0 0 1-1.563 0z" fill="#262D35"/></svg>