<svg width="50" height="50" fill="none" xmlns="http://www.w3.org/2000/svg"><path d="M13.281 16.406v-7.09a.781.781 0 0 0-.781-.782H8.984a.781.781 0 0 0-.675.391l-4.136 7.09a.781.781 0 0 0 .675 1.173H12.5a.781.781 0 0 0 .781-.782zm-1.562-.78H6.208l3.225-5.53h2.286v5.53z" fill="#fff"/><path d="M37.5.781H17.969a2.344 2.344 0 0 0-2.344 2.344v2.344h-1.563V4.297a2.734 2.734 0 0 0-5.468 0v1.172H7.03a.781.781 0 0 0-.675.39L.888 15.234a.781.781 0 0 0-.107.391v10.938a.781.781 0 0 0 .781.78h2.754a5.074 5.074 0 0 0 10.118 0H26.19a5.074 5.074 0 0 0 10.118 0h2.754a.781.781 0 0 0 .78-.78V3.125A2.344 2.344 0 0 0 37.5.781zM17.187 3.125a.781.781 0 0 1 .782-.781H37.5a.781.781 0 0 1 .781.781v18.75H17.188V3.125zm9.127 22.656H14.311a5.064 5.064 0 0 0-1.28-2.343h14.563a5.064 5.064 0 0 0-1.28 2.343zM10.156 4.297a1.172 1.172 0 0 1 2.344 0v1.172h-2.344V4.297zm-7.812 11.54L7.48 7.03h8.145v14.844H2.344v-6.038zm0 7.6H5.72a5.065 5.065 0 0 0-1.28 2.344H2.343v-2.343zm7.031 7.032a3.516 3.516 0 1 1 0-7.032 3.516 3.516 0 0 1 0 7.032zm21.875 0a3.516 3.516 0 1 1 0-7.032 3.516 3.516 0 0 1 0 7.032zm7.031-4.688h-2.095a5.064 5.064 0 0 0-1.28-2.343h3.375v2.343z" fill="#fff"/><path d="M9.375 24.61a2.343 2.343 0 1 0 0 4.686 2.343 2.343 0 0 0 0-4.687zm0 3.124a.78.78 0 1 1 0-1.561.78.78 0 0 1 0 1.561zM31.25 24.61a2.343 2.343 0 1 0 0 4.686 2.343 2.343 0 0 0 0-4.687zm0 3.124a.78.78 0 1 1 0-1.56.78.78 0 0 1 0 1.56zm-7.812-13.232h1.904v1.904a.781.781 0 0 0 .781.782h3.222a.781.781 0 0 0 .782-.782v-1.904h1.904a.781.781 0 0 0 .782-.78v-3.224a.781.781 0 0 0-.782-.78h-1.904V7.812a.781.781 0 0 0-.782-.782h-3.222a.781.781 0 0 0-.78.782v1.904h-1.905a.781.781 0 0 0-.782.781v3.223a.781.781 0 0 0 .782.781zm.78-3.222h1.905a.781.781 0 0 0 .782-.782V8.594h1.66v1.904a.781.781 0 0 0 .78.782h1.905v1.66h-1.905a.781.781 0 0 0-.78.781v1.904h-1.66v-1.904a.781.781 0 0 0-.782-.781H24.22v-1.66z" fill="#fff"/></svg>